<?xml version="1.0" encoding="UTF-8" standalone="no"?>
<svg
   xmlns:dc="http://purl.org/dc/elements/1.1/"
   xmlns:cc="http://creativecommons.org/ns#"
   xmlns:rdf="http://www.w3.org/1999/02/22-rdf-syntax-ns#"
   xmlns:svg="http://www.w3.org/2000/svg"
   xmlns="http://www.w3.org/2000/svg"
   xmlns:xlink="http://www.w3.org/1999/xlink"
   xmlns:sodipodi="http://sodipodi.sourceforge.net/DTD/sodipodi-0.dtd"
   xmlns:inkscape="http://www.inkscape.org/namespaces/inkscape"
   width="209.4433mm"
   height="91.511024mm"
   viewBox="0 0 209.4433 91.511024"
   version="1.1"
   id="svg840">
   <defs
     id="defs834">
    <inkscape:path-effect
       effect="bspline"
       id="path-effect1829"
       is_visible="true"
       lpeversion="1"
       weight="33.333333"
       steps="2"
       helper_size="0"
       apply_no_weight="true"
       apply_with_weight="true"
       only_selected="false" />
    <inkscape:path-effect
       effect="bspline"
       id="path-effect1810"
       is_visible="true"
       lpeversion="1"
       weight="33.333333"
       steps="2"
       helper_size="0"
       apply_no_weight="true"
       apply_with_weight="true"
       only_selected="false" />
    <inkscape:path-effect
       effect="bspline"
       id="path-effect1791"
       is_visible="true"
       lpeversion="1"
       weight="33.333333"
       steps="2"
       helper_size="0"
       apply_no_weight="true"
       apply_with_weight="true"
       only_selected="false" />
    <inkscape:path-effect
       effect="bspline"
       id="path-effect1772"
       is_visible="true"
       lpeversion="1"
       weight="33.333333"
       steps="2"
       helper_size="0"
       apply_no_weight="true"
       apply_with_weight="true"
       only_selected="false" />
    <inkscape:path-effect
       effect="bspline"
       id="path-effect1753"
       is_visible="true"
       lpeversion="1"
       weight="33.333333"
       steps="2"
       helper_size="0"
       apply_no_weight="true"
       apply_with_weight="true"
       only_selected="false" />
    <inkscape:path-effect
       effect="bspline"
       id="path-effect1734"
       is_visible="true"
       lpeversion="1"
       weight="33.333333"
       steps="2"
       helper_size="0"
       apply_no_weight="true"
       apply_with_weight="true"
       only_selected="false" />
    <inkscape:path-effect
       effect="bspline"
       id="path-effect1715"
       is_visible="true"
       lpeversion="1"
       weight="33.333333"
       steps="2"
       helper_size="0"
       apply_no_weight="true"
       apply_with_weight="true"
       only_selected="false" />
    <inkscape:path-effect
       effect="bspline"
       id="path-effect1696"
       is_visible="true"
       lpeversion="1"
       weight="33.333333"
       steps="2"
       helper_size="0"
       apply_no_weight="true"
       apply_with_weight="true"
       only_selected="false" />
    <inkscape:path-effect
       effect="bspline"
       id="path-effect1677"
       is_visible="true"
       lpeversion="1"
       weight="33.333333"
       steps="2"
       helper_size="0"
       apply_no_weight="true"
       apply_with_weight="true"
       only_selected="false" />
    <inkscape:path-effect
       effect="bspline"
       id="path-effect1658"
       is_visible="true"
       lpeversion="1"
       weight="33.333333"
       steps="2"
       helper_size="0"
       apply_no_weight="true"
       apply_with_weight="true"
       only_selected="false" />
    <inkscape:path-effect
       effect="bspline"
       id="path-effect1639"
       is_visible="true"
       lpeversion="1"
       weight="33.333333"
       steps="2"
       helper_size="0"
       apply_no_weight="true"
       apply_with_weight="true"
       only_selected="false" />
    <inkscape:path-effect
       effect="bspline"
       id="path-effect1620"
       is_visible="true"
       lpeversion="1"
       weight="33.333333"
       steps="2"
       helper_size="0"
       apply_no_weight="true"
       apply_with_weight="true"
       only_selected="false" />
    <inkscape:path-effect
       effect="bspline"
       id="path-effect1611"
       is_visible="true"
       lpeversion="1"
       weight="33.333333"
       steps="2"
       helper_size="0"
       apply_no_weight="true"
       apply_with_weight="true"
       only_selected="false" />
    <inkscape:path-effect
       effect="bspline"
       id="path-effect1602"
       is_visible="true"
       lpeversion="1"
       weight="33.333333"
       steps="2"
       helper_size="0"
       apply_no_weight="true"
       apply_with_weight="true"
       only_selected="false" />
    <inkscape:path-effect
       effect="bspline"
       id="path-effect1593"
       is_visible="true"
       lpeversion="1"
       weight="33.333333"
       steps="2"
       helper_size="0"
       apply_no_weight="true"
       apply_with_weight="true"
       only_selected="false" />
    <inkscape:path-effect
       effect="bspline"
       id="path-effect1584"
       is_visible="true"
       lpeversion="1"
       weight="33.333333"
       steps="2"
       helper_size="0"
       apply_no_weight="true"
       apply_with_weight="true"
       only_selected="false" />
    <inkscape:path-effect
       effect="bspline"
       id="path-effect1575"
       is_visible="true"
       lpeversion="1"
       weight="33.333333"
       steps="2"
       helper_size="0"
       apply_no_weight="true"
       apply_with_weight="true"
       only_selected="false" />
    <inkscape:path-effect
       effect="bspline"
       id="path-effect1566"
       is_visible="true"
       lpeversion="1"
       weight="33.333333"
       steps="2"
       helper_size="0"
       apply_no_weight="true"
       apply_with_weight="true"
       only_selected="false" />
    <inkscape:path-effect
       effect="bspline"
       id="path-effect1557"
       is_visible="true"
       lpeversion="1"
       weight="33.333333"
       steps="2"
       helper_size="0"
       apply_no_weight="true"
       apply_with_weight="true"
       only_selected="false" />
    <inkscape:path-effect
       effect="bspline"
       id="path-effect1548"
       is_visible="true"
       lpeversion="1"
       weight="33.333333"
       steps="2"
       helper_size="0"
       apply_no_weight="true"
       apply_with_weight="true"
       only_selected="false" />
    <inkscape:path-effect
       effect="bspline"
       id="path-effect1539"
       is_visible="true"
       lpeversion="1"
       weight="33.333333"
       steps="2"
       helper_size="0"
       apply_no_weight="true"
       apply_with_weight="true"
       only_selected="false" />
    <inkscape:path-effect
       effect="bspline"
       id="path-effect1530"
       is_visible="true"
       lpeversion="1"
       weight="33.333333"
       steps="2"
       helper_size="0"
       apply_no_weight="true"
       apply_with_weight="true"
       only_selected="false" />
    <inkscape:path-effect
       effect="bspline"
       id="path-effect1521"
       is_visible="true"
       lpeversion="1"
       weight="33.333333"
       steps="2"
       helper_size="0"
       apply_no_weight="true"
       apply_with_weight="true"
       only_selected="false" />
    <inkscape:path-effect
       effect="bspline"
       id="path-effect1512"
       is_visible="true"
       lpeversion="1"
       weight="33.333333"
       steps="2"
       helper_size="0"
       apply_no_weight="true"
       apply_with_weight="true"
       only_selected="false" />
    <inkscape:path-effect
       effect="bspline"
       id="path-effect1503"
       is_visible="true"
       lpeversion="1"
       weight="33.333333"
       steps="2"
       helper_size="0"
       apply_no_weight="true"
       apply_with_weight="true"
       only_selected="false" />
    <inkscape:path-effect
       effect="bspline"
       id="path-effect1494"
       is_visible="true"
       lpeversion="1"
       weight="33.333333"
       steps="2"
       helper_size="0"
       apply_no_weight="true"
       apply_with_weight="true"
       only_selected="false" />
    <inkscape:path-effect
       effect="bspline"
       id="path-effect1475"
       is_visible="true"
       lpeversion="1"
       weight="33.333333"
       steps="2"
       helper_size="0"
       apply_no_weight="true"
       apply_with_weight="true"
       only_selected="false" />
    <inkscape:path-effect
       effect="bspline"
       id="path-effect1431"
       is_visible="true"
       lpeversion="1"
       weight="33.333333"
       steps="2"
       helper_size="0"
       apply_no_weight="true"
       apply_with_weight="true"
       only_selected="false" />
  </defs>
  <sodipodi:namedview
     id="base"
     pagecolor="#ffffff"
     bordercolor="#666666"
     borderopacity="1.0"
     inkscape:pageopacity="0.0"
     inkscape:pageshadow="2"
     inkscape:zoom="1.4"
     inkscape:cx="324.91457"
     inkscape:cy="295.80767"
     inkscape:document-units="mm"
     inkscape:current-layer="svg840"
     inkscape:document-rotation="0"
     showgrid="false"
     inkscape:window-width="1920"
     inkscape:window-height="1001"
     inkscape:window-x="-9"
     inkscape:window-y="-9"
     inkscape:window-maximized="1"
     fit-margin-top="0"
     fit-margin-left="0"
     fit-margin-right="0"
     fit-margin-bottom="0" />
  <metadata
     id="metadata837">
    <rdf:RDF>
      <cc:Work
         rdf:about="">
        <dc:format>image/svg+xml</dc:format>
        <dc:type
           rdf:resource="http://purl.org/dc/dcmitype/StillImage" />
        <dc:title></dc:title>
      </cc:Work>
    </rdf:RDF>
  </metadata>
  <g
     inkscape:label="Layer 1"
     inkscape:groupmode="layer"
     id="layer1"
     style="display:inline"
     transform="translate(0.01117919,10.011147)">
    <image
       width="209.4433"
       height="91.511024"
       preserveAspectRatio="none"
        xlink:href="garland.png"
       id="image1413"
       x="-0.011179191"
       y="-10.011147" />
  </g>
  <g
     inkscape:groupmode="layer"
     id="layer2"
     inkscape:label="Layer 2"
     transform="translate(0.01117919,10.011147)">
    <path  
       style="fill:none;stroke:nonestroke:none"
       d="m 47.508985,30.810968 c 0.321021,0.0059 0.962793,0.01772 1.283544,0.02573 0.320752,0.008 0.320752,0.0119 0.324696,0.108387 0.0039,0.09648 0.01182,0.285468 0.0079,0.442936 -0.004,0.157468 -0.01971,0.283458 -0.04531,0.409425 -0.0256,0.125967 -0.06104,0.251958 -0.106318,0.373984 -0.04528,0.122026 -0.100401,0.240141 -0.181085,0.348354 -0.08068,0.108214 -0.186987,0.206642 -0.281415,0.271583 -0.09443,0.06494 -0.177109,0.09644 -0.277434,0.104358 -0.100325,0.0079 -0.21844,-0.0078 -0.31885,-0.053 -0.100409,-0.04517 -0.183091,-0.11998 -0.261872,-0.212479 -0.07878,-0.0925 -0.153588,-0.202742 -0.206801,-0.316919 -0.05321,-0.114177 -0.08471,-0.232293 -0.116182,-0.32875 -0.03147,-0.09646 -0.06297,-0.171266 -0.08861,-0.287431 -0.02564,-0.116164 -0.04533,-0.273653 -0.05715,-0.397685 -0.01182,-0.124031 -0.01576,-0.214588 -0.0138,-0.291385 0.002,-0.0768 0.0098,-0.139799 0.01378,-0.171412 0.004,-0.03161 0.0039,-0.0316 0.324954,-0.02569 z"
       id="path1429" class="lamp"
       inkscape:original-d="m 47.187964,30.805059 c 0.642038,0.01206 1.283809,0.02389 1.925317,0.03544 2.65e-4,0.0042 2.65e-4,0.0081 0,0.0118 0.0081,0.189257 0.01601,0.378241 0.02363,0.566965 -0.01548,0.126259 -0.03123,0.252249 -0.04725,0.377976 -0.03517,0.126259 -0.07061,0.252248 -0.106304,0.377976 -0.05486,0.118385 -0.10998,0.2365 -0.165365,0.354354 -0.106045,0.0987 -0.212349,0.197127 -0.318918,0.295293 -0.08242,0.03176 -0.1651,0.06326 -0.248047,0.09449 -0.117856,-0.01548 -0.235971,-0.03123 -0.354354,-0.04725 -0.08242,-0.07454 -0.1651,-0.14935 -0.248047,-0.224422 -0.07454,-0.109982 -0.149349,-0.220224 -0.224422,-0.33073 -0.03123,-0.117856 -0.06273,-0.235971 -0.09449,-0.354353 -0.03123,-0.07454 -0.06273,-0.14935 -0.0945,-0.224423 -0.01942,-0.157228 -0.03911,-0.314716 -0.05906,-0.472471 -0.0037,-0.09029 -0.0076,-0.180848 -0.0118,-0.271669 0.0081,-0.06273 0.01601,-0.125728 0.02363,-0.18899 z"
       inkscape:path-effect="#path-effect1431" />
    <path
       style="display:inline;fill:none;stroke:none"
       d="m 73.934335,37.161512 c 0.297708,0.0048 0.892874,0.01451 1.190332,0.02104 0.297458,0.0065 0.297458,0.0097 0.301117,0.08875 0.0037,0.07902 0.01097,0.233736 0.0073,0.362643 -0.0037,0.128907 -0.01827,0.232049 -0.04201,0.335167 -0.02374,0.103118 -0.0566,0.206262 -0.09859,0.306157 -0.04199,0.09989 -0.0931,0.196586 -0.167919,0.285175 -0.07481,0.08859 -0.1734,0.169169 -0.260977,0.222344 -0.08758,0.05318 -0.16425,0.07896 -0.257304,0.08545 -0.09305,0.0065 -0.202591,-0.0064 -0.295708,-0.04339 -0.09312,-0.03698 -0.169791,-0.09822 -0.242847,-0.173942 -0.07306,-0.07572 -0.142432,-0.165973 -0.191781,-0.25944 -0.04935,-0.09347 -0.07856,-0.190166 -0.107746,-0.269129 -0.02918,-0.07896 -0.0584,-0.140208 -0.08218,-0.23531 -0.02378,-0.0951 -0.04204,-0.22403 -0.053,-0.325575 -0.01096,-0.101544 -0.01461,-0.175674 -0.0128,-0.238545 0.0018,-0.06287 0.0091,-0.114453 0.01279,-0.14033 0.0037,-0.02588 0.0036,-0.02591 0.301332,-0.02107 z"
       id="path1429-4" class="lamp"
       inkscape:original-d="m 73.636628,37.156675 c 0.595411,0.0099 1.190577,0.01956 1.785497,0.02901 2.46e-4,0.0034 2.46e-4,0.0066 0,0.0097 0.0075,0.154936 0.01484,0.309648 0.02192,0.464148 -0.01436,0.103362 -0.02896,0.206505 -0.04381,0.309432 -0.03261,0.103362 -0.06548,0.206503 -0.09858,0.309431 -0.05088,0.09692 -0.101994,0.193612 -0.153356,0.290093 -0.09834,0.0808 -0.196928,0.161379 -0.295758,0.241743 -0.07644,0.026 -0.153111,0.05179 -0.230034,0.07736 -0.109297,-0.01267 -0.218834,-0.02557 -0.328621,-0.03868 -0.07644,-0.06102 -0.153109,-0.122266 -0.230033,-0.183724 -0.06912,-0.09004 -0.138503,-0.180287 -0.208124,-0.270753 -0.02896,-0.09648 -0.05817,-0.193179 -0.08763,-0.290092 -0.02896,-0.06102 -0.05817,-0.122266 -0.08764,-0.183725 -0.01801,-0.128716 -0.03627,-0.257644 -0.05477,-0.38679 -0.0035,-0.07392 -0.0071,-0.148052 -0.01094,-0.222403 0.0075,-0.05135 0.01484,-0.102928 0.02192,-0.154718 z"
       inkscape:path-effect="#path-effect1475" />
    <path
       style="display:inline;fill:none;stroke:none"
       d="m 104.96216,38.665829 c 0.29771,0.0058 0.89287,0.01737 1.19033,0.02521 0.29746,0.0078 0.29746,0.01164 0.30111,0.10626 0.004,0.09462 0.011,0.279909 0.007,0.434287 -0.004,0.154378 -0.0183,0.277891 -0.042,0.401379 -0.0237,0.123487 -0.0566,0.247007 -0.0986,0.366641 -0.042,0.119634 -0.0931,0.235417 -0.16793,0.341491 -0.0748,0.106075 -0.17343,0.20259 -0.26098,0.266244 -0.0876,0.06366 -0.16426,0.09455 -0.2573,0.102311 -0.093,0.0078 -0.20257,-0.0077 -0.29567,-0.05195 -0.0931,-0.04427 -0.16981,-0.117629 -0.24287,-0.208308 -0.0731,-0.09068 -0.14244,-0.198763 -0.19178,-0.3107 -0.0494,-0.111936 -0.0785,-0.227733 -0.10772,-0.322294 -0.0292,-0.09456 -0.0584,-0.167905 -0.0822,-0.281775 -0.0238,-0.113869 -0.042,-0.268265 -0.053,-0.389871 -0.011,-0.121605 -0.0146,-0.210352 -0.0128,-0.285604 0.002,-0.07525 0.009,-0.137077 0.0128,-0.168073 0.004,-0.031 0.004,-0.03104 0.3013,-0.02525 z"
       id="path1429-4-0" class="lamp"
       inkscape:original-d="m 104.66445,38.660037 c 0.59541,0.01185 1.19058,0.02342 1.7855,0.03474 2.4e-4,0.0041 2.4e-4,0.0079 0,0.01162 0.007,0.185536 0.0148,0.370804 0.0219,0.555818 -0.0144,0.123776 -0.029,0.247289 -0.0438,0.370545 -0.0326,0.123776 -0.0655,0.247287 -0.0986,0.370543 -0.0509,0.116062 -0.102,0.231851 -0.15336,0.347387 -0.0983,0.09676 -0.19693,0.193251 -0.29576,0.289487 -0.0764,0.03113 -0.15311,0.06202 -0.23003,0.09264 -0.1093,-0.01517 -0.21884,-0.03062 -0.32862,-0.04632 -0.0764,-0.07307 -0.15311,-0.146414 -0.23004,-0.22001 -0.0691,-0.107823 -0.1385,-0.215894 -0.20812,-0.324227 -0.029,-0.115535 -0.0582,-0.231332 -0.0876,-0.347385 -0.029,-0.07307 -0.0582,-0.146414 -0.0876,-0.220011 -0.018,-0.154137 -0.0363,-0.308529 -0.0548,-0.463181 -0.004,-0.08852 -0.007,-0.177292 -0.0109,-0.266328 0.007,-0.06149 0.0148,-0.123256 0.0219,-0.185275 z"
       inkscape:path-effect="#path-effect1494" />
    <path
       style="display:inline;fill:none;stroke:none"
       d="m 130.23584,34.144631 c 0.29771,0.0057 0.89286,0.01705 1.19032,0.02468 0.29746,0.0076 0.29746,0.01153 0.30111,0.104375 0.004,0.09285 0.011,0.274704 0.007,0.426223 -0.004,0.15152 -0.0183,0.272747 -0.042,0.393948 -0.0237,0.121201 -0.0566,0.242434 -0.0986,0.359853 -0.042,0.11742 -0.0931,0.231057 -0.16792,0.335169 -0.0748,0.104111 -0.17342,0.19884 -0.26098,0.261318 -0.0875,0.06248 -0.16426,0.0928 -0.25729,0.100414 -0.093,0.0076 -0.20258,-0.0075 -0.29569,-0.051 -0.0931,-0.04346 -0.1698,-0.115453 -0.24286,-0.204451 -0.0731,-0.089 -0.14244,-0.195084 -0.19178,-0.304949 -0.0494,-0.109865 -0.0786,-0.223518 -0.10772,-0.316331 -0.0292,-0.09281 -0.0584,-0.164794 -0.0822,-0.276557 -0.0238,-0.111763 -0.042,-0.2633 -0.053,-0.38266 -0.011,-0.11936 -0.0146,-0.206453 -0.0128,-0.280317 0.002,-0.07386 0.009,-0.134537 0.0128,-0.164959 0.004,-0.03042 0.004,-0.03045 0.3013,-0.02476 z"
       id="path1429-4-8" class="lamp"
       inkscape:original-d="m 129.93813,34.138945 c 0.59541,0.01164 1.19057,0.02299 1.78549,0.0341 2.5e-4,0.0039 2.5e-4,0.0078 0,0.0114 0.007,0.182101 0.0148,0.36394 0.0219,0.545529 -0.0144,0.121485 -0.029,0.242712 -0.0438,0.363687 -0.0326,0.121485 -0.0655,0.242709 -0.0986,0.363684 -0.0509,0.113913 -0.10199,0.227559 -0.15335,0.340957 -0.0983,0.09497 -0.19693,0.189674 -0.29576,0.284129 -0.0764,0.03056 -0.15311,0.06087 -0.23003,0.09092 -0.1093,-0.01489 -0.21884,-0.03005 -0.32862,-0.04547 -0.0764,-0.07172 -0.15311,-0.143704 -0.23004,-0.215938 -0.0691,-0.105822 -0.1385,-0.211896 -0.20812,-0.318225 -0.029,-0.113396 -0.0582,-0.22705 -0.0876,-0.340955 -0.029,-0.07172 -0.0582,-0.143703 -0.0876,-0.215938 -0.018,-0.151285 -0.0363,-0.302818 -0.0548,-0.454608 -0.004,-0.08689 -0.007,-0.17401 -0.0109,-0.261398 0.007,-0.06036 0.0148,-0.120975 0.0219,-0.181845 z"
       inkscape:path-effect="#path-effect1503" />
    <path
       style="display:inline;fill:none;stroke:none"
       d="m 153.43531,26.828443 c 0.29771,0.0063 0.89287,0.0189 1.19032,0.0274 0.29746,0.0085 0.29746,0.0127 0.30111,0.115643 0.004,0.102947 0.011,0.304536 0.007,0.472502 -0.004,0.167966 -0.0183,0.30235 -0.042,0.436709 -0.0238,0.134358 -0.0566,0.268747 -0.0986,0.398913 -0.042,0.130166 -0.0931,0.256136 -0.16793,0.371548 -0.0748,0.115412 -0.17343,0.22042 -0.26098,0.289669 -0.0876,0.06925 -0.16427,0.102858 -0.25728,0.111302 -0.093,0.0084 -0.20256,-0.0084 -0.29568,-0.05653 -0.0931,-0.04817 -0.16981,-0.127984 -0.24286,-0.226645 -0.0731,-0.09866 -0.14244,-0.216254 -0.19178,-0.338042 -0.0494,-0.121787 -0.0786,-0.247775 -0.10773,-0.350658 -0.0292,-0.102883 -0.0584,-0.18268 -0.0822,-0.306571 -0.0238,-0.123891 -0.042,-0.291872 -0.053,-0.424176 -0.011,-0.132304 -0.0146,-0.228864 -0.0128,-0.31074 0.002,-0.08188 0.009,-0.149133 0.0128,-0.182859 0.004,-0.03373 0.004,-0.03377 0.3013,-0.02747 z"
       id="path1429-4-1" class="lamp"
       inkscape:original-d="m 153.1376,26.82214 c 0.59541,0.0129 1.19057,0.02548 1.78549,0.0378 2.5e-4,0.0044 2.5e-4,0.0086 0,0.01264 0.007,0.201864 0.0148,0.403435 0.0219,0.604731 -0.0144,0.134668 -0.029,0.269052 -0.0438,0.403153 -0.0326,0.134669 -0.0655,0.26905 -0.0986,0.403153 -0.0509,0.126275 -0.10199,0.252254 -0.15335,0.377957 -0.0983,0.105273 -0.19693,0.210258 -0.29576,0.314963 -0.0764,0.03387 -0.15311,0.06748 -0.23004,0.100791 -0.10929,-0.01651 -0.21883,-0.03331 -0.32862,-0.0504 -0.0764,-0.0795 -0.15311,-0.159298 -0.23003,-0.23937 -0.0691,-0.117312 -0.1385,-0.234893 -0.20812,-0.35276 -0.029,-0.125702 -0.0582,-0.25169 -0.0876,-0.377956 -0.029,-0.0795 -0.0582,-0.159298 -0.0876,-0.239372 -0.018,-0.167702 -0.0363,-0.33568 -0.0548,-0.503942 -0.004,-0.09631 -0.007,-0.192894 -0.0109,-0.289765 0.007,-0.0669 0.0148,-0.134103 0.0219,-0.20158 z"
       inkscape:path-effect="#path-effect1512" />
    <path
       style="display:inline;fill:none;stroke:none"
       d="m 165.0811,38.019861 c 0.2977,0.0053 0.89286,0.01601 1.19032,0.02325 0.29746,0.0072 0.29746,0.01073 0.30111,0.09795 0.004,0.08722 0.011,0.258024 0.007,0.400332 -0.004,0.142309 -0.0183,0.256169 -0.042,0.37 -0.0237,0.113831 -0.0566,0.227698 -0.0986,0.33798 -0.042,0.110282 -0.0931,0.217011 -0.16791,0.314792 -0.0748,0.09778 -0.17342,0.186758 -0.26097,0.245444 -0.0876,0.05869 -0.16427,0.08716 -0.25731,0.09432 -0.093,0.0072 -0.20258,-0.0071 -0.29569,-0.04789 -0.0931,-0.04081 -0.1698,-0.108433 -0.24286,-0.192024 -0.0731,-0.08359 -0.14243,-0.183225 -0.19178,-0.286412 -0.0493,-0.103187 -0.0786,-0.209934 -0.10772,-0.297105 -0.0292,-0.08717 -0.0584,-0.15478 -0.0822,-0.25975 -0.0238,-0.10497 -0.042,-0.247298 -0.053,-0.359402 -0.011,-0.112103 -0.0146,-0.19391 -0.0128,-0.26334 0.002,-0.06943 0.009,-0.126309 0.0128,-0.15488 0.004,-0.02857 0.004,-0.02861 0.3013,-0.02327 z"
       id="path1429-4-3" class="lamp"
       inkscape:original-d="m 164.78339,38.014522 c 0.59541,0.01093 1.19057,0.02159 1.78549,0.03202 2.5e-4,0.0038 2.5e-4,0.0073 0,0.01071 0.007,0.171035 0.0148,0.341822 0.0219,0.512375 -0.0144,0.114101 -0.029,0.227961 -0.0438,0.341583 -0.0326,0.114101 -0.0655,0.227959 -0.0986,0.341581 -0.0509,0.106991 -0.10199,0.213729 -0.15335,0.320235 -0.0983,0.08919 -0.19693,0.178147 -0.29576,0.266861 -0.0764,0.0287 -0.15311,0.05717 -0.23003,0.0854 -0.1093,-0.01399 -0.21884,-0.02823 -0.32863,-0.0427 -0.0764,-0.06736 -0.1531,-0.13497 -0.23003,-0.202814 -0.0691,-0.0994 -0.1385,-0.199019 -0.20812,-0.298885 -0.029,-0.106504 -0.0582,-0.213251 -0.0876,-0.320233 -0.029,-0.06736 -0.0582,-0.13497 -0.0876,-0.202815 -0.018,-0.14209 -0.0363,-0.284414 -0.0548,-0.426978 -0.004,-0.0816 -0.007,-0.163435 -0.0109,-0.245512 0.008,-0.05668 0.0148,-0.113622 0.0219,-0.170793 z"
       inkscape:path-effect="#path-effect1521" />
    <path
       style="display:inline;fill:none;stroke:none"
       d="m 171.39534,14.048119 c 0.29771,0.0063 0.89287,0.01877 1.19032,0.02723 0.29746,0.0085 0.29746,0.01255 0.30111,0.114808 0.004,0.102254 0.011,0.302451 0.007,0.469256 -0.004,0.166806 -0.0183,0.300261 -0.042,0.433692 -0.0237,0.13343 -0.0566,0.26689 -0.0986,0.396156 -0.042,0.129267 -0.0931,0.254367 -0.16793,0.368981 -0.0748,0.114615 -0.17343,0.218897 -0.26098,0.287669 -0.0875,0.06877 -0.16426,0.10215 -0.25728,0.110534 -0.093,0.0084 -0.20256,-0.0083 -0.29567,-0.05614 -0.0931,-0.04784 -0.16981,-0.127096 -0.24287,-0.225077 -0.0731,-0.09798 -0.14244,-0.214762 -0.19178,-0.335708 -0.0494,-0.120946 -0.0785,-0.246063 -0.10773,-0.348235 -0.0292,-0.102172 -0.0584,-0.181419 -0.0821,-0.304454 -0.0238,-0.123034 -0.042,-0.289856 -0.053,-0.421244 -0.011,-0.131387 -0.0146,-0.227285 -0.0128,-0.308597 0.002,-0.08131 0.009,-0.148101 0.0128,-0.181594 0.004,-0.03349 0.004,-0.03354 0.3013,-0.02728 z"
       id="path1429-4-6" class="lamp"
       inkscape:original-d="m 171.09763,14.04186 c 0.59541,0.01281 1.19057,0.02531 1.78549,0.03754 2.5e-4,0.0044 2.5e-4,0.0085 0,0.01255 0.007,0.200469 0.0148,0.400648 0.0219,0.600553 -0.0144,0.133738 -0.029,0.267193 -0.0438,0.400369 -0.0326,0.133738 -0.0655,0.26719 -0.0986,0.400367 -0.0509,0.125403 -0.10199,0.250511 -0.15335,0.375346 -0.0983,0.104546 -0.19693,0.208805 -0.29576,0.312787 -0.0764,0.03364 -0.15311,0.06701 -0.23003,0.100095 -0.1093,-0.01639 -0.21884,-0.03308 -0.32862,-0.05005 -0.0764,-0.07895 -0.15311,-0.158198 -0.23004,-0.237717 -0.0691,-0.116501 -0.1385,-0.23327 -0.20812,-0.350322 -0.029,-0.124834 -0.0582,-0.249951 -0.0876,-0.375345 -0.029,-0.07895 -0.0582,-0.158198 -0.0876,-0.237719 -0.018,-0.166543 -0.0363,-0.333361 -0.0548,-0.50046 -0.004,-0.09564 -0.007,-0.191562 -0.0109,-0.287764 0.007,-0.06644 0.0148,-0.133176 0.0219,-0.200187 z"
       inkscape:path-effect="#path-effect1530" />
    <path
       style="display:inline;fill:none;stroke:none"
       d="m 144.50301,53.056485 c 0.29771,0.0058 0.89288,0.01752 1.19033,0.02541 0.29746,0.0079 0.29746,0.01179 0.30112,0.107227 0.004,0.09544 0.011,0.282282 0.007,0.437989 -0.004,0.155707 -0.0183,0.280283 -0.042,0.404834 -0.0237,0.124551 -0.0566,0.249133 -0.0986,0.369797 -0.042,0.120664 -0.0931,0.23744 -0.16793,0.344429 -0.0748,0.10699 -0.17342,0.204334 -0.26098,0.268536 -0.0875,0.0642 -0.16426,0.09536 -0.2573,0.103194 -0.093,0.0078 -0.20256,-0.0077 -0.29567,-0.0524 -0.0931,-0.04466 -0.16981,-0.118645 -0.24286,-0.210102 -0.0731,-0.09146 -0.14245,-0.200475 -0.19179,-0.313374 -0.0494,-0.112899 -0.0786,-0.229692 -0.10772,-0.325068 -0.0292,-0.09538 -0.0584,-0.169349 -0.0822,-0.284199 -0.0238,-0.11485 -0.042,-0.270574 -0.053,-0.393225 -0.011,-0.122651 -0.0146,-0.212164 -0.0128,-0.288064 0.002,-0.0759 0.009,-0.138255 0.0128,-0.169518 0.004,-0.03126 0.004,-0.03131 0.3013,-0.02547 z"
       id="path1429-4-69" class="lamp"
       inkscape:original-d="m 144.2053,53.050643 c 0.59541,0.01196 1.19058,0.02362 1.7855,0.03504 2.5e-4,0.0041 2.5e-4,0.008 0,0.01172 0.008,0.187132 0.0148,0.373994 0.0219,0.560601 -0.0144,0.124841 -0.029,0.249417 -0.0438,0.373733 -0.0326,0.124842 -0.0655,0.249416 -0.0986,0.373733 -0.0509,0.11706 -0.10199,0.233846 -0.15336,0.350376 -0.0983,0.09759 -0.19692,0.194915 -0.29575,0.291979 -0.0764,0.0314 -0.15312,0.06255 -0.23004,0.09344 -0.1093,-0.0153 -0.21883,-0.03088 -0.32862,-0.04672 -0.0764,-0.0737 -0.15311,-0.147674 -0.23003,-0.221903 -0.0691,-0.108751 -0.13851,-0.217752 -0.20813,-0.327017 -0.029,-0.11653 -0.0582,-0.233323 -0.0876,-0.350375 -0.029,-0.0737 -0.0582,-0.147674 -0.0876,-0.221904 -0.018,-0.155464 -0.0363,-0.311184 -0.0548,-0.467168 -0.004,-0.08928 -0.007,-0.178818 -0.0109,-0.268619 0.007,-0.06202 0.0148,-0.124317 0.0219,-0.18687 z"
       inkscape:path-effect="#path-effect1620" />
    <path
       style="display:inline;fill:none;stroke:none"
       d="m 44.980861,52.617661 c 0.297708,0.0056 0.892874,0.01691 1.190331,0.02454 0.297458,0.0076 0.297458,0.01133 0.301117,0.103411 0.0037,0.09208 0.01096,0.272367 0.0073,0.42259 -0.0037,0.150224 -0.01827,0.270417 -0.04201,0.390588 -0.02374,0.120171 -0.0566,0.240364 -0.0986,0.356779 -0.04199,0.116415 -0.09311,0.22909 -0.167935,0.332324 -0.07483,0.103233 -0.173411,0.197133 -0.260983,0.259086 -0.08757,0.06195 -0.164244,0.092 -0.25728,0.09956 -0.09304,0.0076 -0.202574,-0.0075 -0.295694,-0.05056 -0.09312,-0.04309 -0.169793,-0.114457 -0.242853,-0.2027 -0.07306,-0.08824 -0.142436,-0.193415 -0.191784,-0.302335 -0.04935,-0.108921 -0.07856,-0.221606 -0.107746,-0.313624 -0.02919,-0.09202 -0.0584,-0.163384 -0.08218,-0.274204 -0.02378,-0.11082 -0.04204,-0.261062 -0.053,-0.379389 -0.01096,-0.118327 -0.01461,-0.204712 -0.0128,-0.27797 0.0018,-0.07326 0.0091,-0.133365 0.01279,-0.163525 0.0037,-0.03016 0.0036,-0.0302 0.301334,-0.02457 z"
       id="path1429-4-81" class="lamp"
       inkscape:original-d="m 44.683153,52.612024 c 0.595411,0.01154 1.190577,0.02279 1.785497,0.03381 2.46e-4,0.004 2.46e-4,0.0077 0,0.0113 0.0075,0.180548 0.01484,0.360836 0.02192,0.540876 -0.01436,0.120449 -0.02896,0.240642 -0.04381,0.360584 -0.03261,0.120448 -0.06548,0.240639 -0.09858,0.360582 -0.05088,0.112942 -0.101994,0.225618 -0.153356,0.338048 -0.09834,0.09416 -0.196928,0.188057 -0.295758,0.281705 -0.07644,0.0303 -0.153111,0.06035 -0.230034,0.09015 -0.109297,-0.01477 -0.218834,-0.0298 -0.328621,-0.04507 -0.07644,-0.07111 -0.153109,-0.142478 -0.230033,-0.214096 -0.06912,-0.104924 -0.138503,-0.21009 -0.208124,-0.31551 -0.02896,-0.112429 -0.05817,-0.225114 -0.08763,-0.338047 -0.02896,-0.07111 -0.05817,-0.142478 -0.08764,-0.214096 -0.01801,-0.149994 -0.03627,-0.300235 -0.05477,-0.45073 -0.0035,-0.08614 -0.0071,-0.172527 -0.01094,-0.259168 0.0075,-0.05984 0.01484,-0.119943 0.02192,-0.180295 z"
       inkscape:path-effect="#path-effect1639" />
    <path
       style="display:inline;fill:none;stroke:none"
       d="m 48.485877,59.991104 c 0.297707,0.0052 0.892873,0.01557 1.190331,0.02256 0.297458,0.007 0.297458,0.01049 0.301117,0.09531 0.0037,0.08482 0.01096,0.250899 0.0073,0.38928 -0.0037,0.138381 -0.01827,0.249102 -0.04201,0.359799 -0.02374,0.110697 -0.0566,0.221419 -0.09859,0.328655 -0.04199,0.107237 -0.09311,0.211032 -0.167927,0.30613 -0.07482,0.0951 -0.173404,0.181597 -0.260978,0.238673 -0.08758,0.05708 -0.16425,0.08475 -0.257294,0.09172 -0.09305,0.007 -0.202583,-0.0069 -0.2957,-0.04658 -0.09312,-0.0397 -0.169794,-0.105438 -0.242852,-0.186726 -0.07306,-0.08129 -0.142432,-0.178168 -0.191782,-0.278503 -0.04935,-0.100336 -0.07856,-0.20414 -0.107745,-0.288903 -0.02919,-0.08476 -0.0584,-0.15051 -0.08218,-0.252598 -0.02378,-0.102088 -0.04204,-0.240489 -0.053,-0.349492 -0.01096,-0.109003 -0.01461,-0.188581 -0.0128,-0.256066 0.0018,-0.06748 0.0091,-0.122859 0.01279,-0.15064 0.0037,-0.02778 0.0036,-0.02781 0.301334,-0.02262 z"
       id="path1429-4-14" class="lamp"
       inkscape:original-d="m 48.188169,59.985912 c 0.595411,0.01063 1.190577,0.021 1.785497,0.03114 2.46e-4,0.0036 2.46e-4,0.0071 0,0.01041 0.0075,0.16632 0.01484,0.332398 0.02192,0.49825 -0.01436,0.110956 -0.02896,0.221677 -0.04381,0.332166 -0.03261,0.110956 -0.06548,0.221675 -0.09858,0.332165 -0.05088,0.10404 -0.101994,0.207836 -0.153356,0.311406 -0.09834,0.08674 -0.196928,0.173236 -0.295758,0.259504 -0.07644,0.02791 -0.153111,0.0556 -0.230034,0.08304 -0.109297,-0.0136 -0.218834,-0.02745 -0.328621,-0.04152 -0.07644,-0.0655 -0.153109,-0.131249 -0.230033,-0.197222 -0.06912,-0.09666 -0.138503,-0.193533 -0.208124,-0.290646 C 48.37831,61.211037 48.3491,61.107233 48.31964,61.0032 48.29068,60.9377 48.26147,60.871951 48.232,60.805977 c -0.01801,-0.138173 -0.03627,-0.276574 -0.05477,-0.415208 -0.0035,-0.07935 -0.0071,-0.15893 -0.01094,-0.238743 0.0075,-0.05512 0.01484,-0.11049 0.02192,-0.166085 z"
       inkscape:path-effect="#path-effect1677" />
    <path
       style="display:inline;fill:none;stroke:none"
       d="m 63.132454,64.999541 c 0.297708,0.0055 0.892874,0.01637 1.190331,0.02373 0.297458,0.0074 0.297458,0.01095 0.301117,0.100161 0.0037,0.08921 0.01096,0.263813 0.0073,0.4093 -0.0037,0.145486 -0.01827,0.26189 -0.04201,0.378271 -0.02374,0.116381 -0.0566,0.232787 -0.0986,0.345531 -0.04199,0.112743 -0.09311,0.221867 -0.167931,0.321845 -0.07482,0.09998 -0.173408,0.190919 -0.26098,0.250921 -0.08757,0.06 -0.164247,0.0891 -0.257287,0.09642 -0.09304,0.0073 -0.202578,-0.0072 -0.295697,-0.04897 -0.09312,-0.04174 -0.169793,-0.110849 -0.242852,-0.196309 -0.07306,-0.08546 -0.142434,-0.187316 -0.191783,-0.292804 -0.04935,-0.105487 -0.07856,-0.214619 -0.107747,-0.303737 -0.02919,-0.08912 -0.0584,-0.158232 -0.08218,-0.26556 -0.02378,-0.107327 -0.04204,-0.252832 -0.053,-0.367427 -0.01096,-0.114596 -0.01461,-0.198262 -0.0128,-0.26921 0.0018,-0.07095 0.0091,-0.129164 0.01279,-0.158372 0.0037,-0.02921 0.0036,-0.02925 0.301334,-0.0238 z"
       id="path1429-4-124" class="lamp"
       inkscape:original-d="m 62.834746,64.994082 c 0.595411,0.01117 1.190577,0.02208 1.785497,0.03274 2.46e-4,0.0038 2.46e-4,0.0074 0,0.01095 0.0075,0.174857 0.01484,0.349461 0.02192,0.523825 -0.01436,0.116652 -0.02896,0.233056 -0.04381,0.349217 -0.03261,0.116651 -0.06548,0.233054 -0.09858,0.349215 -0.05088,0.109382 -0.101994,0.218506 -0.153356,0.327392 -0.09834,0.09119 -0.196928,0.182128 -0.295758,0.272824 -0.07644,0.02934 -0.153111,0.05845 -0.230034,0.08731 -0.109297,-0.0143 -0.218834,-0.02886 -0.328621,-0.04365 -0.07644,-0.06887 -0.153109,-0.137987 -0.230033,-0.207346 -0.06912,-0.101617 -0.138503,-0.203467 -0.208124,-0.305565 -0.02896,-0.108885 -0.05817,-0.218017 -0.08763,-0.32739 -0.02896,-0.06887 -0.05817,-0.137986 -0.08764,-0.207347 -0.01801,-0.145266 -0.03627,-0.29077 -0.05477,-0.436521 -0.0035,-0.08342 -0.0071,-0.167088 -0.01094,-0.250998 0.0075,-0.05795 0.01484,-0.116162 0.02192,-0.174611 z"
       inkscape:path-effect="#path-effect1696" />
    <path
       style="display:inline;fill:none;stroke:none"
       d="m 84.346367,64.858063 c 0.297707,0.0057 0.892877,0.01717 1.190334,0.02489 0.297458,0.0077 0.297458,0.01152 0.301114,0.105072 0.0037,0.09355 0.01095,0.27666 0.0073,0.429255 -0.0037,0.152595 -0.01827,0.274684 -0.04201,0.396745 -0.02374,0.122061 -0.05661,0.244155 -0.09861,0.362407 -0.042,0.118252 -0.09311,0.232695 -0.167929,0.337547 -0.07482,0.104851 -0.173418,0.200251 -0.26097,0.263172 -0.08755,0.06292 -0.16427,0.09346 -0.257304,0.101133 -0.09304,0.0077 -0.202567,-0.0076 -0.295677,-0.05135 -0.09311,-0.04376 -0.169806,-0.116272 -0.242863,-0.205901 -0.07306,-0.08963 -0.142441,-0.196469 -0.191787,-0.307113 -0.04935,-0.110643 -0.07855,-0.225104 -0.107723,-0.318575 -0.02918,-0.09347 -0.05838,-0.165965 -0.08215,-0.27852 -0.02378,-0.112555 -0.04204,-0.265168 -0.053,-0.385351 -0.01096,-0.120183 -0.01459,-0.207944 -0.01278,-0.282327 0.0018,-0.07438 0.0091,-0.135496 0.01278,-0.166134 0.0037,-0.03064 0.0036,-0.03068 0.301302,-0.02496 z"
       id="path1429-4-7" class="lamp"
       inkscape:original-d="m 84.048659,64.852337 c 0.59541,0.01172 1.19058,0.02315 1.7855,0.03434 2.5e-4,0.004 2.5e-4,0.0078 0,0.01148 0.008,0.183394 0.0148,0.366523 0.0219,0.549402 -0.0144,0.122346 -0.029,0.244435 -0.0438,0.366267 -0.0326,0.122347 -0.0655,0.244433 -0.0986,0.366266 -0.0509,0.114721 -0.10199,0.229174 -0.15336,0.343376 -0.0983,0.09564 -0.19692,0.191021 -0.29575,0.286146 -0.0764,0.03077 -0.15312,0.0613 -0.23004,0.09157 -0.1093,-0.015 -0.21883,-0.03027 -0.32862,-0.04578 -0.0764,-0.07223 -0.15311,-0.144723 -0.23003,-0.217469 -0.0691,-0.106578 -0.13851,-0.213402 -0.20813,-0.320484 -0.029,-0.114201 -0.0582,-0.228662 -0.0876,-0.343375 -0.029,-0.07223 -0.0582,-0.144724 -0.0876,-0.217471 -0.018,-0.152358 -0.0363,-0.304967 -0.0548,-0.457835 -0.003,-0.0875 -0.007,-0.175246 -0.0109,-0.263253 0.007,-0.06078 0.0148,-0.121834 0.0219,-0.183136 z"
       inkscape:path-effect="#path-effect1715" />
    <path
       style="display:inline;fill:none;stroke:none"
       d="m 86.189004,72.257783 c 0.297708,0.0056 0.892868,0.01667 1.190325,0.02418 0.297458,0.0075 0.297458,0.0112 0.301113,0.102019 0.0037,0.09081 0.01096,0.26867 0.0073,0.416852 -0.0037,0.148183 -0.01827,0.266741 -0.04201,0.385272 -0.02374,0.11853 -0.05661,0.237095 -0.09861,0.351929 -0.042,0.114833 -0.09311,0.225967 -0.167921,0.327786 -0.07481,0.101819 -0.17342,0.194462 -0.260975,0.255566 -0.08756,0.0611 -0.164262,0.09076 -0.257299,0.09821 -0.09304,0.0075 -0.202578,-0.0074 -0.295683,-0.04986 -0.0931,-0.0425 -0.169804,-0.112909 -0.242863,-0.199948 -0.07306,-0.08704 -0.142437,-0.190788 -0.191782,-0.298234 -0.04934,-0.107445 -0.07854,-0.218596 -0.107722,-0.309364 -0.02918,-0.09077 -0.05838,-0.161167 -0.08215,-0.270469 -0.02378,-0.109301 -0.04204,-0.257502 -0.053,-0.374232 -0.01096,-0.116729 -0.01459,-0.201911 -0.01278,-0.274147 0.0018,-0.07223 0.0091,-0.131577 0.01278,-0.161329 0.0037,-0.02975 0.0036,-0.02978 0.301301,-0.02422 z"
       id="path1429-4-68" class="lamp"
       inkscape:original-d="m 85.891297,72.252224 c 0.59541,0.01138 1.19057,0.02248 1.78549,0.03334 2.5e-4,0.0039 2.5e-4,0.0076 0,0.01115 0.007,0.178092 0.0148,0.355927 0.0219,0.533518 -0.0144,0.11881 -0.029,0.237368 -0.0438,0.355678 -0.0326,0.11881 -0.0655,0.237366 -0.0986,0.355677 -0.0509,0.111405 -0.10199,0.222548 -0.15335,0.333449 -0.0983,0.09288 -0.19693,0.185498 -0.29576,0.277873 -0.0764,0.02989 -0.15311,0.05953 -0.23003,0.08892 -0.1093,-0.01456 -0.21884,-0.02939 -0.32862,-0.04446 -0.0764,-0.07014 -0.15311,-0.14054 -0.23004,-0.211183 -0.0691,-0.103497 -0.1385,-0.207232 -0.20812,-0.311218 -0.029,-0.1109 -0.0582,-0.222051 -0.0876,-0.333448 -0.029,-0.07014 -0.0582,-0.140539 -0.0876,-0.211184 -0.018,-0.147953 -0.0363,-0.29615 -0.0548,-0.444598 -0.004,-0.08497 -0.007,-0.170179 -0.0109,-0.255642 0.007,-0.05903 0.0148,-0.118311 0.0219,-0.177842 z"
       inkscape:path-effect="#path-effect1734" />
    <path
       style="display:inline;fill:none;stroke:none"
       d="m 116.80507,62.605605 c 0.2977,0.0054 0.89286,0.01611 1.19032,0.02337 0.29746,0.0073 0.29746,0.01077 0.30112,0.09852 0.004,0.08776 0.011,0.259496 0.007,0.402618 -0.004,0.143121 -0.0183,0.257631 -0.042,0.372113 -0.0237,0.114482 -0.0566,0.228998 -0.0986,0.33991 -0.042,0.110911 -0.0931,0.21825 -0.16791,0.316589 -0.0748,0.09834 -0.17342,0.187824 -0.26098,0.246845 -0.0875,0.05902 -0.16426,0.08766 -0.2573,0.09486 -0.093,0.0072 -0.20258,-0.0071 -0.29569,-0.04816 -0.0931,-0.04105 -0.1698,-0.109052 -0.24286,-0.193117 -0.073,-0.08407 -0.14243,-0.184273 -0.19178,-0.288049 -0.0494,-0.103777 -0.0786,-0.211133 -0.10772,-0.298804 -0.0292,-0.08767 -0.0584,-0.155662 -0.0822,-0.261231 -0.0238,-0.105569 -0.042,-0.248711 -0.053,-0.361456 -0.011,-0.112745 -0.0146,-0.195015 -0.0128,-0.264781 0.002,-0.06977 0.009,-0.127091 0.0128,-0.155825 0.004,-0.02873 0.004,-0.02878 0.3013,-0.02341 z"
       id="path1429-4-12" class="lamp"
       inkscape:original-d="m 116.50736,62.600234 c 0.59541,0.01099 1.19057,0.02172 1.78549,0.03221 2.5e-4,0.0038 2.5e-4,0.0073 0,0.01077 0.008,0.172011 0.0148,0.343773 0.0219,0.5153 -0.0144,0.114753 -0.029,0.229263 -0.0438,0.343533 -0.0326,0.114754 -0.0655,0.229261 -0.0986,0.343533 -0.0509,0.107601 -0.10199,0.214949 -0.15335,0.322062 -0.0983,0.0897 -0.19693,0.179164 -0.29576,0.268385 -0.0764,0.02887 -0.15311,0.0575 -0.23003,0.08589 -0.1093,-0.01407 -0.21884,-0.02839 -0.32862,-0.04294 -0.0764,-0.06775 -0.15311,-0.135741 -0.23004,-0.203972 -0.0691,-0.09996 -0.1385,-0.200155 -0.20812,-0.300591 -0.029,-0.107113 -0.0582,-0.214469 -0.0876,-0.322062 -0.029,-0.06775 -0.0582,-0.135741 -0.0876,-0.203973 -0.018,-0.142901 -0.0363,-0.286038 -0.0548,-0.429416 -0.004,-0.08207 -0.007,-0.164368 -0.0109,-0.246913 0.007,-0.05701 0.0148,-0.114272 0.0219,-0.171769 z"
       inkscape:path-effect="#path-effect1753" />
    <path
       style="display:inline;fill:none;stroke:none"
       d="m 111.56064,76.733261 c 0.29771,0.0062 0.89288,0.0185 1.19033,0.02682 0.29746,0.0083 0.29746,0.01241 0.30111,0.113205 0.004,0.100791 0.011,0.298146 0.007,0.462583 -0.004,0.164438 -0.0183,0.295998 -0.042,0.427533 -0.0237,0.131536 -0.0566,0.263102 -0.0986,0.390532 -0.042,0.127431 -0.0931,0.250757 -0.16794,0.363743 -0.0748,0.112986 -0.17343,0.215789 -0.26098,0.283584 -0.0875,0.0678 -0.16426,0.100699 -0.25728,0.108964 -0.093,0.0083 -0.20257,-0.0082 -0.29567,-0.05534 -0.0931,-0.04716 -0.16981,-0.125291 -0.24287,-0.221881 -0.0731,-0.09659 -0.14244,-0.211713 -0.19178,-0.330942 -0.0493,-0.119229 -0.0785,-0.24257 -0.10772,-0.343292 -0.0292,-0.100721 -0.0584,-0.178842 -0.0822,-0.300131 -0.0238,-0.121288 -0.042,-0.285742 -0.053,-0.415269 -0.011,-0.129526 -0.0146,-0.224055 -0.0128,-0.304268 0.002,-0.08021 0.009,-0.145944 0.0128,-0.178961 0.004,-0.03302 0.004,-0.03305 0.3013,-0.02688 z"
       id="path1429-4-5" class="lamp"
       inkscape:original-d="m 111.26293,76.727092 c 0.59541,0.01263 1.19058,0.02495 1.7855,0.037 2.4e-4,0.0043 2.4e-4,0.0084 0,0.01237 0.007,0.197623 0.0148,0.39496 0.0219,0.592027 -0.0144,0.13184 -0.029,0.2634 -0.0438,0.394685 -0.0326,0.13184 -0.0655,0.263398 -0.0986,0.394684 -0.0509,0.123623 -0.102,0.246955 -0.15336,0.370018 -0.0983,0.103061 -0.19693,0.205841 -0.29576,0.308346 -0.0764,0.03316 -0.15311,0.06606 -0.23003,0.09867 -0.1093,-0.01616 -0.21884,-0.03262 -0.32862,-0.04934 -0.0764,-0.07783 -0.15311,-0.155952 -0.23004,-0.234342 -0.0691,-0.114848 -0.1385,-0.229959 -0.20812,-0.34535 -0.029,-0.123061 -0.0582,-0.246402 -0.0876,-0.370016 -0.029,-0.07783 -0.0582,-0.155952 -0.0876,-0.234344 -0.018,-0.164179 -0.0363,-0.328629 -0.0548,-0.493356 -0.004,-0.09429 -0.007,-0.188843 -0.0109,-0.283679 0.008,-0.0655 0.0148,-0.131286 0.0219,-0.197345 z"
       inkscape:path-effect="#path-effect1791" />
    <path
       style="display:inline;fill:none;stroke:none"
       d="m 142.64918,75.220047 c 0.29771,0.0048 0.89287,0.01451 1.19033,0.02104 0.29746,0.0065 0.29746,0.0097 0.30111,0.08874 0.004,0.07901 0.011,0.233746 0.007,0.362656 -0.004,0.128911 -0.0183,0.232054 -0.042,0.335166 -0.0237,0.103112 -0.0566,0.206263 -0.0986,0.306161 -0.042,0.0999 -0.0931,0.196581 -0.1679,0.28516 -0.0748,0.08858 -0.17341,0.16918 -0.26097,0.222348 -0.0876,0.05317 -0.16427,0.07896 -0.25732,0.08545 -0.0931,0.0065 -0.2026,-0.0064 -0.2957,-0.04338 -0.0931,-0.03697 -0.16981,-0.09823 -0.24286,-0.173948 -0.073,-0.07572 -0.14243,-0.165977 -0.19178,-0.259451 -0.0493,-0.09347 -0.0785,-0.190173 -0.10772,-0.26914 -0.0292,-0.07897 -0.0584,-0.140212 -0.0822,-0.235301 -0.0238,-0.09509 -0.042,-0.224023 -0.053,-0.325579 -0.011,-0.101556 -0.0146,-0.175657 -0.0128,-0.238496 0.002,-0.06284 0.009,-0.114485 0.0128,-0.140364 0.004,-0.02588 0.004,-0.02591 0.30129,-0.02107 z"
       id="path1429-4-2" class="lamp"
       inkscape:original-d="m 142.35147,75.21521 c 0.59542,0.0099 1.19058,0.01956 1.7855,0.02901 2.5e-4,0.0034 2.5e-4,0.0066 0,0.0097 0.007,0.154936 0.0148,0.309648 0.0219,0.464148 -0.0144,0.103362 -0.029,0.206505 -0.0438,0.309432 -0.0326,0.103362 -0.0655,0.206503 -0.0986,0.309431 -0.0509,0.09692 -0.10199,0.193612 -0.15335,0.290093 -0.0983,0.0808 -0.19693,0.161379 -0.29576,0.241743 -0.0764,0.026 -0.15311,0.05179 -0.23004,0.07736 -0.10929,-0.01267 -0.21883,-0.02557 -0.32862,-0.03868 -0.0764,-0.06102 -0.15311,-0.122266 -0.23003,-0.183724 -0.0691,-0.09004 -0.1385,-0.180287 -0.20812,-0.270753 -0.029,-0.09648 -0.0582,-0.193179 -0.0876,-0.290092 -0.029,-0.06102 -0.0582,-0.122266 -0.0876,-0.183725 -0.018,-0.128716 -0.0363,-0.257644 -0.0548,-0.38679 -0.004,-0.07392 -0.007,-0.148052 -0.0109,-0.222403 0.007,-0.05135 0.0148,-0.102928 0.0219,-0.154718 z"
       inkscape:path-effect="#path-effect1810" />
    <path
       style="display:inline;fill:none;stroke:none"
       d="m 169.01303,68.90994 c 0.29771,0.0061 0.89287,0.01817 1.19032,0.02637 0.29746,0.0082 0.29746,0.0122 0.30111,0.111144 0.004,0.09894 0.011,0.292725 0.007,0.454184 -0.004,0.161459 -0.0183,0.290638 -0.042,0.419791 -0.0238,0.129153 -0.0566,0.258337 -0.0986,0.38346 -0.042,0.125123 -0.0931,0.246214 -0.16793,0.357154 -0.0748,0.110941 -0.17343,0.211882 -0.26098,0.278453 -0.0876,0.06657 -0.16426,0.09888 -0.25729,0.106998 -0.093,0.0081 -0.20257,-0.008 -0.29567,-0.05433 -0.0931,-0.0463 -0.16981,-0.123023 -0.24287,-0.217863 -0.0731,-0.09484 -0.14244,-0.20788 -0.19178,-0.32495 -0.0494,-0.11707 -0.0786,-0.238178 -0.10772,-0.337076 -0.0292,-0.0989 -0.0584,-0.175605 -0.0822,-0.294697 -0.0238,-0.119093 -0.042,-0.280568 -0.053,-0.40775 -0.011,-0.127181 -0.0146,-0.219999 -0.0128,-0.298759 0.002,-0.07876 0.009,-0.143304 0.0128,-0.175722 0.004,-0.03242 0.004,-0.03246 0.3013,-0.02641 z"
       id="path1429-4-16" class="lamp"
       inkscape:original-d="m 168.71532,68.903882 c 0.59541,0.0124 1.19057,0.0245 1.78549,0.03633 2.5e-4,0.0043 2.5e-4,0.0083 0,0.01215 0.007,0.194045 0.0148,0.38781 0.0219,0.581309 -0.0144,0.129452 -0.029,0.258631 -0.0438,0.387538 -0.0326,0.129453 -0.0655,0.258629 -0.0986,0.387538 -0.0509,0.121385 -0.10199,0.242484 -0.15335,0.363318 -0.0983,0.101196 -0.19693,0.202115 -0.29576,0.302764 -0.0764,0.03256 -0.15311,0.06486 -0.23003,0.09689 -0.1093,-0.01587 -0.21884,-0.03202 -0.32862,-0.04844 -0.0764,-0.07642 -0.15311,-0.153129 -0.23004,-0.2301 -0.0691,-0.112768 -0.1385,-0.225795 -0.20812,-0.339096 -0.029,-0.120834 -0.0582,-0.241942 -0.0876,-0.363317 -0.029,-0.07642 -0.0582,-0.153129 -0.0876,-0.230101 -0.018,-0.161207 -0.0363,-0.322679 -0.0548,-0.484424 -0.004,-0.09258 -0.007,-0.185423 -0.0109,-0.278542 0.008,-0.06431 0.0148,-0.128909 0.0219,-0.193772 z"
       inkscape:path-effect="#path-effect1829" />
  </g>
</svg>
