<svg xmlns:xlink="http://www.w3.org/1999/xlink" id="svg840" version="1.1" viewBox="0 0 209.443 91.511">
  <defs/>
  <g id="layer1" display="inline" transform="translate(.011 10.011)">
    <image id="image1413" width="209.443" height="91.511" x="-.011" y="-10.011" preserveAspectRatio="none" xlink:href="Pngs/Compressed/garland.png"/>
  </g>
  <g id="layer2" transform="translate(.011 10.011)">
    <path id="path1429" fill="none" stroke="nonestroke:none" d="M47.509 30.811c.321.006.963.018 1.284.026.32.008.32.012.324.108.004.097.012.286.008.443-.004.157-.02.283-.045.41a2.522 2.522 0 01-.107.373c-.045.122-.1.24-.18.349-.081.108-.188.206-.282.271a.538.538 0 01-.277.105.675.675 0 01-.32-.053.761.761 0 01-.261-.213 1.441 1.441 0 01-.207-.317c-.053-.114-.085-.232-.116-.328-.032-.097-.063-.172-.089-.288a3.638 3.638 0 01-.07-.689c.001-.077.01-.14.013-.171.004-.032.004-.032.325-.026z" class="lamp"/>
    <path id="path1429-4" fill="none" stroke="none" d="M73.934 37.162c.298.004.893.014 1.19.02.298.007.298.01.302.09.003.078.01.233.007.362a1.647 1.647 0 01-.042.335 1.882 1.882 0 01-.099.306 1.08 1.08 0 01-.167.285c-.075.089-.174.17-.261.223a.54.54 0 01-.258.085.7.7 0 01-.295-.043.697.697 0 01-.243-.174 1.177 1.177 0 01-.192-.26c-.05-.093-.079-.19-.108-.269-.029-.079-.058-.14-.082-.235a2.652 2.652 0 01-.066-.564c.002-.063.01-.115.013-.14.004-.026.004-.026.301-.021z" class="lamp" display="inline"/>
    <path id="path1429-4-0" fill="none" stroke="none" d="M104.962 38.666c.298.006.893.017 1.19.025.298.008.298.012.302.106.004.095.01.28.007.435a2.378 2.378 0 01-.141.768c-.042.12-.093.235-.168.341a1.2 1.2 0 01-.26.266.483.483 0 01-.258.103.595.595 0 01-.296-.052.715.715 0 01-.243-.209 1.422 1.422 0 01-.192-.31c-.049-.112-.078-.228-.107-.323-.03-.094-.059-.168-.082-.281a3.762 3.762 0 01-.066-.676c.002-.075.009-.137.013-.168.004-.03.004-.031.3-.025z" class="lamp" display="inline"/>
    <path id="path1429-4-8" fill="none" stroke="none" d="M130.236 34.145c.298.005.893.017 1.19.024.298.008.298.012.301.105.004.093.011.274.007.426a2.292 2.292 0 01-.042.394 2.492 2.492 0 01-.098.36 1.333 1.333 0 01-.168.335 1.188 1.188 0 01-.261.261.488.488 0 01-.258.1.605.605 0 01-.295-.05.712.712 0 01-.243-.205 1.391 1.391 0 01-.192-.305c-.05-.11-.078-.223-.108-.316-.029-.093-.058-.165-.082-.277a3.628 3.628 0 01-.066-.663c.002-.074.01-.134.013-.165.004-.03.004-.03.302-.024z" class="lamp" display="inline"/>
    <path id="path1429-4-1" fill="none" stroke="none" d="M153.435 26.828c.298.007.893.02 1.19.028.298.008.298.013.302.115.004.103.01.305.007.473a2.807 2.807 0 01-.14.836c-.043.13-.094.256-.169.371a1.26 1.26 0 01-.26.29.462.462 0 01-.258.111.554.554 0 01-.296-.056.735.735 0 01-.243-.227 1.575 1.575 0 01-.191-.338c-.05-.122-.079-.248-.108-.35-.03-.104-.059-.183-.082-.307a4.434 4.434 0 01-.066-.735c.002-.082.009-.15.013-.183.004-.034.004-.034.301-.028z" class="lamp" display="inline"/>
    <path id="path1429-4-3" fill="none" stroke="none" d="M165.081 38.02a243 243 0 011.19.023c.298.007.298.01.302.098.004.087.01.258.007.4a2.027 2.027 0 01-.042.37 2.23 2.23 0 01-.1.338c-.041.11-.092.217-.167.315a1.155 1.155 0 01-.26.246.507.507 0 01-.258.094.64.64 0 01-.296-.048.703.703 0 01-.243-.192 1.298 1.298 0 01-.192-.286c-.049-.104-.078-.21-.107-.298-.03-.087-.059-.154-.083-.26a3.212 3.212 0 01-.065-.622c.002-.07.009-.126.012-.155.004-.028.004-.028.302-.023z" class="lamp" display="inline"/>
    <path id="path1429-4-6" fill="none" stroke="none" d="M171.395 14.048c.298.006.893.019 1.19.027.298.009.298.013.302.115.004.102.01.303.007.47a2.769 2.769 0 01-.14.83 1.53 1.53 0 01-.169.368 1.254 1.254 0 01-.26.288.463.463 0 01-.258.11.557.557 0 01-.296-.056.733.733 0 01-.243-.225 1.562 1.562 0 01-.191-.335c-.05-.121-.079-.247-.108-.349-.03-.102-.058-.181-.082-.304a4.374 4.374 0 01-.066-.73 2.06 2.06 0 01.013-.182c.004-.033.004-.033.301-.027z" class="lamp" display="inline"/>
    <path id="path1429-4-69" fill="none" stroke="none" d="M144.503 53.056c.298.006.893.018 1.19.026.298.008.298.012.301.107.004.096.011.282.007.438a2.418 2.418 0 01-.14.775c-.042.12-.093.237-.168.344a1.204 1.204 0 01-.261.269.48.48 0 01-.257.103.591.591 0 01-.296-.052.717.717 0 01-.243-.21 1.436 1.436 0 01-.192-.314c-.05-.113-.078-.23-.107-.325-.03-.095-.059-.17-.083-.284a3.825 3.825 0 01-.065-.682c.002-.075.009-.138.012-.169.004-.031.004-.031.302-.026z" class="lamp" display="inline"/>
    <path id="path1429-4-81" fill="none" stroke="none" d="M44.98 52.618c.299.005.894.017 1.191.024.298.008.298.012.301.104.004.092.011.272.008.422-.004.15-.019.27-.042.39-.024.121-.057.241-.099.358-.042.116-.093.229-.168.332a1.183 1.183 0 01-.26.259.49.49 0 01-.258.1.61.61 0 01-.296-.051.71.71 0 01-.243-.203 1.38 1.38 0 01-.192-.302c-.049-.109-.078-.222-.107-.314-.03-.092-.059-.163-.082-.274a3.563 3.563 0 01-.066-.657c.002-.074.009-.134.013-.164.003-.03.003-.03.3-.024z" class="lamp" display="inline"/>
    <path id="path1429-4-14" fill="none" stroke="none" d="M48.486 59.991c.298.005.893.016 1.19.023.298.007.298.01.301.095.004.085.011.25.008.39-.004.138-.019.248-.042.36-.024.11-.057.22-.099.328a1.18 1.18 0 01-.168.306 1.143 1.143 0 01-.26.239.516.516 0 01-.258.091.656.656 0 01-.296-.046.7.7 0 01-.243-.187 1.262 1.262 0 01-.192-.279c-.049-.1-.078-.204-.107-.288-.03-.085-.059-.151-.082-.253a3.04 3.04 0 01-.066-.606c.002-.067.009-.122.013-.15.003-.028.003-.028.3-.023z" class="lamp" display="inline"/>
    <path id="path1429-4-124" fill="none" stroke="none" d="M63.132 65c.298.005.893.016 1.19.023.298.008.298.011.302.1.004.09.01.264.007.41a2.086 2.086 0 01-.042.378 2.323 2.323 0 01-.098.346 1.261 1.261 0 01-.168.321c-.075.1-.174.191-.261.251a.5.5 0 01-.258.097.628.628 0 01-.295-.05.706.706 0 01-.243-.196 1.331 1.331 0 01-.192-.292c-.05-.106-.078-.215-.108-.304-.029-.09-.058-.158-.082-.266a3.349 3.349 0 01-.066-.636c.002-.071.01-.13.013-.159.004-.029.004-.029.301-.023z" class="lamp" display="inline"/>
    <path id="path1429-4-7" fill="none" stroke="none" d="M84.346 64.858c.298.006.893.017 1.19.025.298.008.298.011.302.105.004.094.01.277.007.43a2.29 2.29 0 01-.042.396 2.529 2.529 0 01-.099.362 1.347 1.347 0 01-.167.338c-.075.105-.174.2-.261.263a.486.486 0 01-.258.101.602.602 0 01-.295-.051.713.713 0 01-.243-.206 1.404 1.404 0 01-.192-.307c-.05-.11-.079-.225-.108-.319-.029-.093-.058-.166-.082-.278a3.673 3.673 0 01-.066-.668c.002-.074.01-.135.013-.166.004-.03.004-.03.301-.025z" class="lamp" display="inline"/>
    <path id="path1429-4-68" fill="none" stroke="none" d="M86.189 72.258c.298.005.893.016 1.19.024.298.007.298.011.301.102.004.09.011.269.008.417a2.162 2.162 0 01-.042.385 2.4 2.4 0 01-.099.352 1.293 1.293 0 01-.168.328 1.175 1.175 0 01-.26.255.495.495 0 01-.258.099.617.617 0 01-.296-.05.708.708 0 01-.243-.2 1.358 1.358 0 01-.191-.298c-.05-.108-.079-.219-.108-.31-.03-.09-.059-.161-.082-.27a3.47 3.47 0 01-.066-.649c.002-.072.009-.131.013-.161.003-.03.003-.03.301-.024z" class="lamp" display="inline"/>
    <path id="path1429-4-12" fill="none" stroke="none" d="M116.805 62.606c.298.005.893.016 1.19.023.298.007.298.01.302.098.004.088.01.26.007.403a2.05 2.05 0 01-.042.372 2.252 2.252 0 01-.1.34c-.041.111-.092.218-.167.317a1.158 1.158 0 01-.261.247.505.505 0 01-.257.094.637.637 0 01-.296-.048.704.704 0 01-.243-.193 1.31 1.31 0 01-.192-.288c-.049-.104-.078-.211-.107-.299-.03-.087-.059-.155-.083-.26a3.248 3.248 0 01-.065-.627c.002-.07.009-.127.012-.156.004-.029.004-.029.302-.023z" class="lamp" display="inline"/>
    <path id="path1429-4-5" fill="none" stroke="none" d="M111.56 76.733c.298.006.894.019 1.191.027.297.008.297.012.301.113.004.101.011.298.007.463a2.692 2.692 0 01-.14.818 1.243 1.243 0 01-.429.647.466.466 0 01-.258.11.564.564 0 01-.295-.056.73.73 0 01-.243-.222 1.534 1.534 0 01-.192-.33c-.05-.12-.079-.244-.108-.344-.029-.101-.058-.18-.082-.3a4.254 4.254 0 01-.066-.72 2 2 0 01.013-.179c.004-.033.004-.033.301-.027z" class="lamp" display="inline"/>
    <path id="path1429-4-2" fill="none" stroke="none" d="M142.65 75.22l1.19.021c.297.007.297.01.3.089.005.079.012.234.008.362a1.671 1.671 0 01-.042.336 1.877 1.877 0 01-.099.306 1.08 1.08 0 01-.168.285c-.075.089-.173.17-.26.222a.54.54 0 01-.258.086.7.7 0 01-.296-.044.697.697 0 01-.243-.174 1.179 1.179 0 01-.192-.259c-.049-.093-.078-.19-.107-.27-.03-.078-.059-.14-.082-.234a2.655 2.655 0 01-.066-.565c.002-.062.009-.114.013-.14.004-.026.004-.026.3-.021z" class="lamp" display="inline"/>
    <path id="path1429-4-16" fill="none" stroke="none" d="M169.013 68.91c.298.006.893.018 1.19.026.298.009.298.013.301.111.004.1.011.293.007.455a2.597 2.597 0 01-.14.803 1.23 1.23 0 01-.429.636.471.471 0 01-.257.106.573.573 0 01-.296-.054.725.725 0 01-.243-.218 1.5 1.5 0 01-.192-.325c-.05-.117-.078-.238-.107-.337-.03-.099-.059-.175-.083-.294a4.105 4.105 0 01-.065-.707c.002-.079.009-.143.012-.176.004-.032.004-.032.302-.026z" class="lamp" display="inline"/>
  </g>
</svg>
