<svg xmlns="http://www.w3.org/2000/svg" width="358.375" height="327.547" viewBox="0 0 94.82 86.663"><path d="M43.314 47.732c-.052.264-.448.978-1 1.09a.561.561 0 0 1-.5-.132.703.703 0 0 1-.164-.248c-.082-.202-.079-.397-.091-.541-.01-.114-.032-.176-.1-.215-.11-.063-.354-.06-.551-.1-.085-.016-.16-.04-.168-.066-.006-.024.045-.055.246-.013a1.446 1.446 0 0 1-.4-.235 1.389 1.389 0 0 1-.246-.275c-.142-.206-.299-.535-.384-1.026a4.733 4.733 0 0 1 .018-1.601c.099-.557.28-1.057.503-1.446a5.58 5.58 0 0 1 1.956-1.956c.775-.46 1.703-.768 2.742-.88a8.846 8.846 0 0 1 3.182.254 8.883 8.883 0 0 1 2.929 1.369c1.319.974 2.32 2.186 3.021 3.56.697 1.367 1.102 2.908 1.2 4.528a13.465 13.465 0 0 1-.624 4.88 13.404 13.404 0 0 1-2.38 4.411 14.66 14.66 0 0 1-5.199 3.996c-1.971.907-4.127 1.384-6.325 1.446-4.516.126-9.057-1.498-12.457-4.516a19.152 19.152 0 0 1-4.898-6.827c-1.1-2.584-1.622-5.347-1.631-8.091-.02-5.885 2.29-11.47 6.102-15.495a23.37 23.37 0 0 1 8.406-5.686c3.033-1.2 6.35-1.796 9.759-1.731 6.467.122 13.204 2.64 18.279 7.665a27.41 27.41 0 0 1 6.397 9.845c1.352 3.575 1.97 7.418 1.85 11.292-.233 7.634-3.327 15.283-9.064 20.936a31.251 31.251 0 0 1-11.197 7.112c-4.089 1.507-8.44 2.16-12.775 2.001a35.145 35.145 0 0 1-12.687-2.883 34.096 34.096 0 0 1-10.887-7.505 35.087 35.087 0 0 1-7.851-12.528C6.649 53.51 5.95 48.65 6.14 43.86a39.215 39.215 0 0 1 3.253-14.146 38.026 38.026 0 0 1 8.422-12.14A39.097 39.097 0 0 1 31.696 8.92c5.191-1.882 10.587-2.625 15.802-2.427a43.632 43.632 0 0 1 15.704 3.58A42.423 42.423 0 0 1 76.74 19.41a43.866 43.866 0 0 1 9.653 15.314c2.289 6.153 3.021 12.21 2.908 17.534-.155 7.264-1.867 13.313-3.557 17.692a61.03 61.03 0 0 1-1.436 3.403c-3.089 6.759-6.687 12.041-7.732 13.31 1.437-1.068 6.743-4.319 11.157-11.469a43.674 43.674 0 0 0 1.943-3.504c2.299-4.626 4.563-11.12 5.05-19.204.358-5.913-.26-12.752-2.71-19.783a48.88 48.88 0 0 0-10.754-17.632A48.059 48.059 0 0 0 65.775 4.2 49.53 49.53 0 0 0 47.745.037c-5.995-.232-12.231.628-18.254 2.83a45.284 45.284 0 0 0-16.115 10.136 44.104 44.104 0 0 0-9.731 14.225A45.223 45.223 0 0 0 .02 43.652c-.165 5.546.7 11.184 2.713 16.539a40.938 40.938 0 0 0 9.321 14.516 39.68 39.68 0 0 0 12.818 8.594 40.581 40.581 0 0 0 14.722 3.13c5.01.112 10.038-.716 14.765-2.537a36.417 36.417 0 0 0 12.896-8.445c6.594-6.704 9.994-15.61 10.13-24.357.069-4.455-.706-8.875-2.328-12.99a31.898 31.898 0 0 0-7.548-11.295c-5.981-5.762-13.786-8.544-21.193-8.617-3.92-.038-7.749.674-11.267 2.089a27.572 27.572 0 0 0-9.778 6.65c-4.48 4.733-7.222 11.249-7.274 18.158-.024 3.238.548 6.542 1.832 9.682a23.41 23.41 0 0 0 5.834 8.397c4.142 3.829 9.713 5.98 15.38 5.964 2.772-.008 5.571-.537 8.198-1.661a19.508 19.508 0 0 0 7.059-5.141 18.522 18.522 0 0 0 3.497-5.971 18.77 18.77 0 0 0 1.1-6.77c-.056-2.306-.556-4.613-1.554-6.751a15.666 15.666 0 0 0-4.535-5.714 14.634 14.634 0 0 0-4.783-2.505 14.775 14.775 0 0 0-5.358-.632c-1.84.127-3.66.62-5.31 1.527a11.728 11.728 0 0 0-4.294 4.05 10.521 10.521 0 0 0-1.417 3.6 10.732 10.732 0 0 0-.054 3.932c.245 1.374.788 2.713 1.69 3.847a7.465 7.465 0 0 0 1.689 1.556 7.65 7.65 0 0 0 2.182 1.003c.549.15 1.068.177 1.486.162a6.19 6.19 0 0 0 1.287-.188 6.192 6.192 0 0 0 2.326-1.13c.388-.311.726-.673.987-1.08.33-.515.514-1.07.535-1.605a2.36 2.36 0 0 0-.079-.726 1.678 1.678 0 0 0-.585-.896c-.687-.539-1.58-.313-1.796-.305z" fill="#f48914"/></svg>