<?xml version="1.0" encoding="UTF-8" standalone="no"?>
<svg
   xmlns:dc="http://purl.org/dc/elements/1.1/"
   xmlns:cc="http://creativecommons.org/ns#"
   xmlns:rdf="http://www.w3.org/1999/02/22-rdf-syntax-ns#"
   xmlns:svg="http://www.w3.org/2000/svg"
   xmlns="http://www.w3.org/2000/svg"
   xmlns:sodipodi="http://sodipodi.sourceforge.net/DTD/sodipodi-0.dtd"
   xmlns:inkscape="http://www.inkscape.org/namespaces/inkscape"
   width="94.820045mm"
   height="86.663406mm"
   viewBox="0 0 94.820045 86.663406"
   version="1.1"
   id="svg8"
   inkscape:version="1.0.1 (3bc2e813f5, 2020-09-07)"
   sodipodi:docname="preload.svg">
  <defs
     id="defs2">
    <inkscape:path-effect
       effect="powerstroke"
       id="path-effect870"
       is_visible="true"
       lpeversion="1"
       offset_points="0.2,0.14089049 | 6,0.14089049 | 11.8,0.14089049"
       sort_points="true"
       interpolator_type="CentripetalCatmullRom"
       interpolator_beta="0.2"
       start_linecap_type="zerowidth"
       linejoin_type="round"
       miter_limit="4"
       scale_width="13.8"
       end_linecap_type="zerowidth" />
    <inkscape:path-effect
       effect="join_type"
       id="path-effect868"
       is_visible="true"
       lpeversion="1"
       linecap_type="butt"
       line_width="1.0650001"
       linejoin_type="extrp_arc"
       miter_limit="100"
       attempt_force_join="true" />
    <inkscape:path-effect
       effect="powerstroke"
       id="path-effect850"
       is_visible="true"
       lpeversion="1"
       offset_points="0.2,0.53250003 | 6,0.53250003 | 11.8,0.53250003"
       sort_points="true"
       interpolator_type="CentripetalCatmullRom"
       interpolator_beta="0.2"
       start_linecap_type="zerowidth"
       linejoin_type="round"
       miter_limit="4"
       scale_width="1"
       end_linecap_type="zerowidth" />
  </defs>
  <sodipodi:namedview
     id="base"
     pagecolor="#ffffff"
     bordercolor="#666666"
     borderopacity="1.0"
     inkscape:pageopacity="0.0"
     inkscape:pageshadow="2"
     inkscape:zoom="0.7"
     inkscape:cx="232.27714"
     inkscape:cy="377.54673"
     inkscape:document-units="mm"
     inkscape:current-layer="layer1"
     inkscape:document-rotation="0"
     showgrid="false"
     inkscape:window-width="1920"
     inkscape:window-height="1001"
     inkscape:window-x="-9"
     inkscape:window-y="-9"
     inkscape:window-maximized="1"
     fit-margin-top="0"
     fit-margin-left="0"
     fit-margin-right="0"
     fit-margin-bottom="0" />
  <metadata
     id="metadata5">
    <rdf:RDF>
      <cc:Work
         rdf:about="">
        <dc:format>image/svg+xml</dc:format>
        <dc:type
           rdf:resource="http://purl.org/dc/dcmitype/StillImage" />
        <dc:title></dc:title>
      </cc:Work>
    </rdf:RDF>
  </metadata>
  <g
     inkscape:label="Layer 1"
     inkscape:groupmode="layer"
     id="layer1"
     style="display:inline"
     transform="translate(-44.376673,-48.274094)">
    <path
       sodipodi:type="spiral"
       style="fill:#f48914;fill-opacity:1;fill-rule:nonzero;stroke:none;stroke-width:0.281781;stroke-miterlimit:4;stroke-dasharray:none"
       id="path833"
       sodipodi:cx="87.690468"
       sodipodi:cy="96.005951"
       sodipodi:expansion="1"
       sodipodi:revolution="3"
       sodipodi:radius="51.205658"
       sodipodi:argument="-17.985785"
       sodipodi:t0="0"
       inkscape:path-effect="#path-effect870"
       d="m 87.690468,96.005951 c -0.05192,0.264598 -0.447876,0.978619 -1.000135,1.08938 -0.155917,0.03127 -0.310575,0.0074 -0.43793,-0.08095 -0.02172,-0.01507 -0.0423,-0.03181 -0.06158,-0.05009 -0.06911,-0.06549 -0.124,-0.150255 -0.163825,-0.248451 -0.08193,-0.202024 -0.07895,-0.396992 -0.09178,-0.54123 -0.01009,-0.113401 -0.03129,-0.175336 -0.0998,-0.214732 -0.10905,-0.0627 -0.353274,-0.05994 -0.551083,-0.09884 -0.08494,-0.0167 -0.159996,-0.04136 -0.167254,-0.06739 -0.0065,-0.02343 0.04497,-0.05483 0.245648,-0.01214 -0.1778,-0.07184 -0.304237,-0.154461 -0.399645,-0.235031 -0.09024,-0.07621 -0.171906,-0.166951 -0.246576,-0.275036 -0.142276,-0.205944 -0.298825,-0.535113 -0.383471,-1.026267 -0.08006,-0.464561 -0.08446,-1.018944 0.01813,-1.601162 0.09811,-0.556726 0.280089,-1.057265 0.50249,-1.446137 0.505035,-0.841472 1.166789,-1.487067 1.956159,-1.956257 0.774458,-0.460327 1.702505,-0.767399 2.742173,-0.879718 1.015443,-0.109702 2.106173,-0.02911 3.181677,0.254106 1.054519,0.277694 2.060399,0.74157 2.92865,1.368694 1.31912,0.974095 2.32088,2.186724 3.021407,3.560589 0.697152,1.367243 1.102075,2.908291 1.199386,4.527917 0.09689,1.612584 -0.113177,3.279652 -0.623593,4.879342 -0.509859,1.59795 -1.312572,3.10711 -2.380652,4.41178 -1.470179,1.77635 -3.247133,3.09838 -5.198108,3.99604 -1.971077,0.90691 -4.127528,1.38375 -6.324764,1.44534 -4.516728,0.1266 -9.057607,-1.49754 -12.457396,-4.51537 -2.220894,-1.98097 -3.832608,-4.32367 -4.89837,-6.82774 -1.099646,-2.58369 -1.621778,-5.346742 -1.630838,-8.090831 -0.01943,-5.885046 2.290283,-11.46884 6.102009,-15.494861 2.377577,-2.511244 5.226559,-4.426364 8.406739,-5.685495 3.032538,-1.200675 6.349664,-1.796305 9.758442,-1.731695 6.466822,0.122573 13.20435,2.640649 18.27868,7.6658 2.89001,2.855332 5.02198,6.207855 6.39746,9.844885 1.3519,3.574675 1.96958,7.417659 1.85079,11.291913 -0.23407,7.633314 -3.32829,15.283054 -9.06469,20.935414 -3.29107,3.25043 -7.11375,5.60678 -11.197608,7.11213 -4.088215,1.50696 -8.438829,2.16113 -12.774082,2.00164 -4.356323,-0.16026 -8.67703,-1.14118 -12.68742,-2.88372 -4.046039,-1.75802 -7.757462,-4.28236 -10.887008,-7.50455 -3.620466,-3.72133 -6.20785,-8.00823 -7.851163,-12.52854 -1.675822,-4.60973 -2.373451,-9.470051 -2.184589,-14.258949 0.19363,-4.909815 1.316876,-9.72303 3.252658,-14.147076 1.997323,-4.564693 4.846086,-8.689038 8.421928,-12.139678 4.179243,-4.035655 8.947322,-6.864155 13.881394,-8.653664 5.190937,-1.88267 10.5864,-2.625573 15.80153,-2.427047 5.561448,0.211708 10.89568,1.489111 15.70415,3.579188 5.2283,2.272562 9.79054,5.480483 13.53843,9.337977 4.64844,4.790414 7.72283,10.125364 9.65292,15.313935 2.28867,6.152522 3.02073,12.210585 2.90722,17.533944 -0.15488,7.26378 -1.86631,13.31272 -3.55614,17.69158 -0.48328,1.25234 -0.97251,2.38911 -1.43595,3.40312 -3.08913,6.75892 -6.68694,12.04112 -7.73272,13.30948 1.43754,-1.06758 6.74373,-4.31808 11.15769,-11.46812 0.63314,-1.02562 1.29216,-2.19456 1.94287,-3.50409 2.2986,-4.62581 4.56225,-11.12093 5.05038,-19.20468 0.357,-5.912383 -0.2598,-12.751427 -2.71147,-19.782627 -2.06993,-5.936412 -5.48664,-12.09035 -10.75344,-17.631673 -4.2655,-4.492473 -9.48955,-8.22845 -15.48683,-10.872919 -5.51136,-2.430204 -11.640944,-3.915198 -18.029023,-4.162572 -5.996314,-0.232203 -12.23205,0.627918 -18.255177,2.831081 -5.733129,2.097086 -11.275306,5.415334 -16.114455,10.135087 -4.166438,4.065853 -7.453873,8.905183 -9.731696,14.225594 -2.206212,5.153146 -3.455855,10.741539 -3.624811,16.423656 -0.164894,5.545481 0.700395,11.183893 2.713278,16.538483 1.976733,5.25842 5.056766,10.23004 9.321236,14.51681 3.72021,3.73461 8.095569,6.61842 12.817642,8.59317 4.678035,1.95633 9.689775,3.01744 14.721802,3.13009 5.00955,0.11215 10.038477,-0.71604 14.76483,-2.53634 4.728124,-1.82098 9.133264,-4.62731 12.896124,-8.44555 6.59407,-6.70365 9.99466,-15.60938 10.13016,-24.356917 0.069,-4.454584 -0.70561,-8.875057 -2.32786,-12.989534 -1.65288,-4.192139 -4.1746,-8.04029 -7.5478,-11.295615 -5.98121,-5.761332 -13.785884,-8.5439 -21.193079,-8.616487 -3.919546,-0.03841 -7.748686,0.674133 -11.267055,2.088372 -3.694934,1.485212 -7.010519,3.727606 -9.77805,6.650728 -4.480684,4.732587 -7.222089,11.248659 -7.273999,18.158122 -0.02432,3.237406 0.548442,6.541403 1.831772,9.681041 1.246521,3.04958 3.163608,5.93759 5.833973,8.3972 4.142343,3.829 9.713265,5.97997 15.380511,5.9646 2.771873,-0.008 5.570835,-0.53698 8.197316,-1.66157 2.609202,-1.11719 5.033351,-2.81628 7.059461,-5.1409 1.54523,-1.76088 2.72115,-3.80287 3.49737,-5.97103 0.77609,-2.16781 1.15719,-4.47458 1.10048,-6.769468 -0.057,-2.306472 -0.5569,-4.613378 -1.55479,-6.751421 -1.00985,-2.163653 -2.51692,-4.125596 -4.535331,-5.713765 -1.436064,-1.141436 -3.078806,-1.979165 -4.782897,-2.504946 -1.736448,-0.535765 -3.564888,-0.75678 -5.357806,-0.632404 -1.839919,0.127637 -3.65987,0.62047 -5.310062,1.527288 -1.712889,0.941271 -3.188575,2.299365 -4.293659,4.050649 -0.712446,1.118299 -1.175065,2.370263 -1.417415,3.600054 -0.255807,1.298075 -0.28202,2.646091 -0.05345,3.931084 0.244481,1.374474 0.787579,2.713417 1.690365,3.846969 0.478157,0.600381 1.043373,1.12511 1.687722,1.55662 0.675486,0.45237 1.410746,0.7842 2.182426,1.00247 0.548788,0.14989 1.067861,0.17732 1.48576,0.162 0.460028,-0.0169 0.896692,-0.0892 1.28703,-0.18813 0.890783,-0.22577 1.69681,-0.62728 2.326492,-1.13067 0.388209,-0.31035 0.726231,-0.672149 0.986737,-1.07869 0.330096,-0.515143 0.513954,-1.069767 0.535419,-1.605796 0.01072,-0.26763 -0.02002,-0.511891 -0.07927,-0.72517 -0.01666,-0.05997 -0.0359,-0.117845 -0.0574,-0.173512 -0.12419,-0.321531 -0.318956,-0.559095 -0.527175,-0.722411 -0.68753,-0.539265 -1.580262,-0.313725 -1.796738,-0.30571 z" />
  </g>
</svg>
